<svg xmlns="http://www.w3.org/2000/svg" width="768" height="1024" viewBox="0 0 768 1024"><defs><linearGradient id="bg" x1="0" y1="0" x2="1" y2="1"><stop stop-color="#030514"/><stop offset=".56" stop-color="#120725"/><stop offset="1" stop-color="#02040b"/></linearGradient></defs><rect width="768" height="1024" fill="url(#bg)"/><circle cx="0" cy="0" r="0.6" fill="#fff" opacity=".55"/><circle cx="73" cy="41" r="1.6" fill="#fff" opacity=".55"/><circle cx="146" cy="164" r="2.6" fill="#fff" opacity=".55"/><circle cx="219" cy="369" r="0.6" fill="#fff" opacity=".55"/><circle cx="292" cy="656" r="1.6" fill="#fff" opacity=".55"/><circle cx="365" cy="1" r="2.6" fill="#fff" opacity=".55"/><circle cx="438" cy="452" r="0.6" fill="#fff" opacity=".55"/><circle cx="511" cy="985" r="1.6" fill="#fff" opacity=".55"/><circle cx="584" cy="576" r="2.6" fill="#fff" opacity=".55"/><circle cx="657" cy="249" r="0.6" fill="#fff" opacity=".55"/><circle cx="730" cy="4" r="1.6" fill="#fff" opacity=".55"/><circle cx="35" cy="865" r="2.6" fill="#fff" opacity=".55"/><circle cx="108" cy="784" r="0.6" fill="#fff" opacity=".55"/><circle cx="181" cy="785" r="1.6" fill="#fff" opacity=".55"/><circle cx="254" cy="868" r="2.6" fill="#fff" opacity=".55"/><circle cx="327" cy="9" r="0.6" fill="#fff" opacity=".55"/><circle cx="400" cy="256" r="1.6" fill="#fff" opacity=".55"/><circle cx="473" cy="585" r="2.6" fill="#fff" opacity=".55"/><circle cx="546" cy="996" r="0.6" fill="#fff" opacity=".55"/><circle cx="619" cy="465" r="1.6" fill="#fff" opacity=".55"/><circle cx="692" cy="16" r="2.6" fill="#fff" opacity=".55"/><circle cx="765" cy="673" r="0.6" fill="#fff" opacity=".55"/><circle cx="70" cy="388" r="1.6" fill="#fff" opacity=".55"/><circle cx="143" cy="185" r="2.6" fill="#fff" opacity=".55"/><circle cx="216" cy="64" r="0.6" fill="#fff" opacity=".55"/><circle cx="289" cy="25" r="1.6" fill="#fff" opacity=".55"/><circle cx="362" cy="68" r="2.6" fill="#fff" opacity=".55"/><circle cx="435" cy="193" r="0.6" fill="#fff" opacity=".55"/><circle cx="508" cy="400" r="1.6" fill="#fff" opacity=".55"/><circle cx="581" cy="689" r="2.6" fill="#fff" opacity=".55"/><circle cx="654" cy="36" r="0.6" fill="#fff" opacity=".55"/><circle cx="727" cy="489" r="1.6" fill="#fff" opacity=".55"/><circle cx="32" cy="0" r="2.6" fill="#fff" opacity=".55"/><circle cx="105" cy="617" r="0.6" fill="#fff" opacity=".55"/><circle cx="178" cy="292" r="1.6" fill="#fff" opacity=".55"/><circle cx="251" cy="49" r="2.6" fill="#fff" opacity=".55"/><circle cx="324" cy="912" r="0.6" fill="#fff" opacity=".55"/><circle cx="397" cy="833" r="1.6" fill="#fff" opacity=".55"/><circle cx="470" cy="836" r="2.6" fill="#fff" opacity=".55"/><circle cx="543" cy="921" r="0.6" fill="#fff" opacity=".55"/><circle cx="616" cy="64" r="1.6" fill="#fff" opacity=".55"/><circle cx="689" cy="313" r="2.6" fill="#fff" opacity=".55"/><circle cx="762" cy="644" r="0.6" fill="#fff" opacity=".55"/><circle cx="67" cy="33" r="1.6" fill="#fff" opacity=".55"/><circle cx="140" cy="528" r="2.6" fill="#fff" opacity=".55"/><circle cx="213" cy="81" r="0.6" fill="#fff" opacity=".55"/><circle cx="286" cy="740" r="1.6" fill="#fff" opacity=".55"/><circle cx="359" cy="457" r="2.6" fill="#fff" opacity=".55"/><circle cx="432" cy="256" r="0.6" fill="#fff" opacity=".55"/><circle cx="505" cy="137" r="1.6" fill="#fff" opacity=".55"/><circle cx="578" cy="100" r="2.6" fill="#fff" opacity=".55"/><circle cx="651" cy="145" r="0.6" fill="#fff" opacity=".55"/><circle cx="724" cy="272" r="1.6" fill="#fff" opacity=".55"/><circle cx="29" cy="481" r="2.6" fill="#fff" opacity=".55"/><circle cx="102" cy="772" r="0.6" fill="#fff" opacity=".55"/><circle cx="175" cy="121" r="1.6" fill="#fff" opacity=".55"/><circle cx="248" cy="576" r="2.6" fill="#fff" opacity=".55"/><circle cx="321" cy="89" r="0.6" fill="#fff" opacity=".55"/><circle cx="394" cy="708" r="1.6" fill="#fff" opacity=".55"/><circle cx="467" cy="385" r="2.6" fill="#fff" opacity=".55"/><circle cx="540" cy="144" r="0.6" fill="#fff" opacity=".55"/><circle cx="613" cy="1009" r="1.6" fill="#fff" opacity=".55"/><circle cx="686" cy="932" r="2.6" fill="#fff" opacity=".55"/><circle cx="759" cy="937" r="0.6" fill="#fff" opacity=".55"/><circle cx="64" cy="0" r="1.6" fill="#fff" opacity=".55"/><circle cx="137" cy="169" r="2.6" fill="#fff" opacity=".55"/><circle cx="210" cy="420" r="0.6" fill="#fff" opacity=".55"/><circle cx="283" cy="753" r="1.6" fill="#fff" opacity=".55"/><circle cx="356" cy="144" r="2.6" fill="#fff" opacity=".55"/><circle cx="429" cy="641" r="0.6" fill="#fff" opacity=".55"/><circle cx="502" cy="196" r="1.6" fill="#fff" opacity=".55"/><circle cx="575" cy="857" r="2.6" fill="#fff" opacity=".55"/><circle cx="648" cy="576" r="0.6" fill="#fff" opacity=".55"/><circle cx="721" cy="377" r="1.6" fill="#fff" opacity=".55"/><circle cx="26" cy="260" r="2.6" fill="#fff" opacity=".55"/><circle cx="99" cy="225" r="0.6" fill="#fff" opacity=".55"/><circle cx="172" cy="272" r="1.6" fill="#fff" opacity=".55"/><circle cx="245" cy="401" r="2.6" fill="#fff" opacity=".55"/><circle cx="318" cy="612" r="0.6" fill="#fff" opacity=".55"/><circle cx="391" cy="905" r="1.6" fill="#fff" opacity=".55"/><circle cx="464" cy="256" r="2.6" fill="#fff" opacity=".55"/><circle cx="537" cy="713" r="0.6" fill="#fff" opacity=".55"/><circle cx="610" cy="228" r="1.6" fill="#fff" opacity=".55"/><circle cx="683" cy="849" r="2.6" fill="#fff" opacity=".55"/><circle cx="756" cy="528" r="0.6" fill="#fff" opacity=".55"/><circle cx="61" cy="289" r="1.6" fill="#fff" opacity=".55"/><circle cx="134" cy="132" r="2.6" fill="#fff" opacity=".55"/><circle cx="207" cy="57" r="0.6" fill="#fff" opacity=".55"/><circle cx="280" cy="64" r="1.6" fill="#fff" opacity=".55"/><circle cx="353" cy="153" r="2.6" fill="#fff" opacity=".55"/><circle cx="520" cy="240" r="210" fill="#a45cff" opacity=".13"/><circle cx="330" cy="720" r="250" fill="#38c9ff" opacity=".08"/></svg>