<svg xmlns="http://www.w3.org/2000/svg" width="640" height="1024" viewBox="0 0 640 1024"><defs></defs><rect width="640" height="1024" rx="34" fill="#031018"/><text x="34" y="72" font-size="26" fill="#13b9ff" font-weight="900" font-family="Arial">VE</text><text x="100" y="62" font-size="28" fill="#fff" font-weight="900" font-family="Arial">Voice Events</text><text x="100" y="90" font-size="18" fill="#bbc7d4" font-family="Arial">Журнал событий</text><circle cx="575" cy="68" r="32" fill="#13b9ff" opacity=".9"/><text x="575" y="78" text-anchor="middle" font-size="20" font-weight="900">АВ</text><line x1="0" y1="125" x2="640" y2="125" stroke="#13b9ff" stroke-opacity=".22"/><text x="34" y="185" font-size="38" font-weight="900" fill="#fff" font-family="Arial">Журнал событий</text><rect x="34" y="200" width="250" height="50" rx="16" fill="#ffffff14" stroke="#13b9ff" stroke-opacity=".55"/><text x="64" y="233" font-size="22" fill="#fff" font-family="Arial">▣ 24 июня 2026 г.</text><rect x="440" y="184" width="150" height="74" rx="22" fill="#ffffff14" stroke="#d8fbff" stroke-opacity=".5"/><text x="515" y="232" text-anchor="middle" font-size="24" fill="#fff" font-family="Arial">▽ Фильтр</text><rect x="34" y="230" width="560" height="96" rx="22" fill="#ffffff14" stroke="#13b9ff" stroke-opacity=".65"/><circle cx="74" cy="278" r="25" fill="#13b9ff" opacity=".16" stroke="#13b9ff"/><text x="120" y="269" font-size="32" font-weight="900" fill="#fff" font-family="Arial">07:00</text><text x="120" y="296" font-size="20" fill="#13b9ff" font-family="Arial">Ожидает заполнения</text><text x="560" y="288" font-size="26" fill="#fff">›</text><rect x="34" y="350" width="560" height="96" rx="22" fill="#ffffff14" stroke="#13b9ff" stroke-opacity=".65"/><circle cx="74" cy="398" r="25" fill="#13b9ff" opacity=".16" stroke="#13b9ff"/><text x="120" y="389" font-size="32" font-weight="900" fill="#fff" font-family="Arial">06:00</text><text x="120" y="416" font-size="20" fill="#13b9ff" font-family="Arial">Ожидает заполнения</text><text x="560" y="408" font-size="26" fill="#fff">›</text><rect x="34" y="470" width="560" height="96" rx="22" fill="#ffffff14" stroke="#13b9ff" stroke-opacity=".65"/><circle cx="74" cy="518" r="25" fill="#13b9ff" opacity=".16" stroke="#13b9ff"/><text x="120" y="509" font-size="32" font-weight="900" fill="#fff" font-family="Arial">05:00</text><text x="120" y="536" font-size="20" fill="#13b9ff" font-family="Arial">Ожидает заполнения</text><text x="560" y="528" font-size="26" fill="#fff">›</text><rect x="34" y="590" width="560" height="96" rx="22" fill="#ffffff14" stroke="#ffb800" stroke-opacity=".65"/><circle cx="74" cy="638" r="25" fill="#13b9ff" opacity=".16" stroke="#ffb800"/><text x="120" y="629" font-size="32" font-weight="900" fill="#fff" font-family="Arial">04:00</text><text x="120" y="656" font-size="20" fill="#13b9ff" font-family="Arial">Ожидает заполнения</text><text x="560" y="648" font-size="26" fill="#fff">›</text><rect x="34" y="710" width="560" height="96" rx="22" fill="#ffffff14" stroke="#ff3d55" stroke-opacity=".65"/><circle cx="74" cy="758" r="25" fill="#13b9ff" opacity=".16" stroke="#ff3d55"/><text x="120" y="749" font-size="32" font-weight="900" fill="#fff" font-family="Arial">03:00</text><text x="120" y="776" font-size="20" fill="#13b9ff" font-family="Arial">Ожидает заполнения</text><text x="560" y="768" font-size="26" fill="#fff">›</text><rect x="14" y="838" width="612" height="150" rx="32" fill="#ffffff17" stroke="#d8fbff" stroke-opacity=".3"/><circle cx="76" cy="900" r="46" fill="#ffffff20" stroke="#13b9ff" stroke-width="2"/><text x="76" y="904" text-anchor="middle" font-size="24" fill="#13b9ff">◷</text><text x="76" y="960" text-anchor="middle" font-size="18" fill="#13b9ff">События</text><circle cx="198" cy="900" r="36" fill="#ffffff20" stroke="#13b9ff" stroke-width="2"/><text x="198" y="904" text-anchor="middle" font-size="24" fill="#fff">☑</text><text x="198" y="960" text-anchor="middle" font-size="18" fill="#fff">Задачи</text><circle cx="320" cy="900" r="36" fill="#ffffff20" stroke="#13b9ff" stroke-width="2"/><text x="320" y="904" text-anchor="middle" font-size="24" fill="#fff">◯</text><text x="320" y="960" text-anchor="middle" font-size="18" fill="#fff">Чат</text><circle cx="442" cy="900" r="36" fill="#ffffff20" stroke="#13b9ff" stroke-width="2"/><text x="442" y="904" text-anchor="middle" font-size="24" fill="#fff">▤</text><text x="442" y="960" text-anchor="middle" font-size="18" fill="#fff">Документы</text><circle cx="564" cy="900" r="36" fill="#ffffff20" stroke="#13b9ff" stroke-width="2"/><text x="564" y="904" text-anchor="middle" font-size="24" fill="#fff">▱</text><text x="564" y="960" text-anchor="middle" font-size="18" fill="#fff">Транспорт</text></svg>