<svg xmlns="http://www.w3.org/2000/svg" width="768" height="1024" viewBox="0 0 768 1024"><defs><linearGradient id="bg" x1="0" y1="0" x2="1" y2="1"><stop stop-color="#031018"/><stop offset=".56" stop-color="#082a36"/><stop offset="1" stop-color="#02040b"/></linearGradient></defs><rect width="768" height="1024" fill="url(#bg)"/><ellipse cx="0" cy="0" rx="8" ry="6" fill="#fff" opacity=".24"/><ellipse cx="97" cy="43" rx="9" ry="7" fill="#fff" opacity=".24"/><ellipse cx="194" cy="172" rx="10" ry="8" fill="#fff" opacity=".24"/><ellipse cx="291" cy="387" rx="11" ry="9" fill="#fff" opacity=".24"/><ellipse cx="388" cy="688" rx="12" ry="10" fill="#fff" opacity=".24"/><ellipse cx="485" cy="51" rx="13" ry="11" fill="#fff" opacity=".24"/><ellipse cx="582" cy="524" rx="14" ry="12" fill="#fff" opacity=".24"/><ellipse cx="679" cy="59" rx="15" ry="6" fill="#fff" opacity=".24"/><ellipse cx="8" cy="704" rx="16" ry="7" fill="#fff" opacity=".24"/><ellipse cx="105" cy="411" rx="8" ry="8" fill="#fff" opacity=".24"/><ellipse cx="202" cy="204" rx="9" ry="9" fill="#fff" opacity=".24"/><ellipse cx="299" cy="83" rx="10" ry="10" fill="#fff" opacity=".24"/><ellipse cx="396" cy="48" rx="11" ry="11" fill="#fff" opacity=".24"/><ellipse cx="493" cy="99" rx="12" ry="12" fill="#fff" opacity=".24"/><ellipse cx="590" cy="236" rx="13" ry="6" fill="#fff" opacity=".24"/><ellipse cx="687" cy="459" rx="14" ry="7" fill="#fff" opacity=".24"/><ellipse cx="16" cy="768" rx="15" ry="8" fill="#fff" opacity=".24"/><ellipse cx="113" cy="139" rx="16" ry="9" fill="#fff" opacity=".24"/><ellipse cx="210" cy="620" rx="8" ry="10" fill="#fff" opacity=".24"/><ellipse cx="307" cy="163" rx="9" ry="11" fill="#fff" opacity=".24"/><ellipse cx="404" cy="816" rx="10" ry="12" fill="#fff" opacity=".24"/><ellipse cx="501" cy="531" rx="11" ry="6" fill="#fff" opacity=".24"/><ellipse cx="598" cy="332" rx="12" ry="7" fill="#fff" opacity=".24"/><ellipse cx="695" cy="219" rx="13" ry="8" fill="#fff" opacity=".24"/><ellipse cx="24" cy="192" rx="14" ry="9" fill="#fff" opacity=".24"/><ellipse cx="121" cy="251" rx="15" ry="10" fill="#fff" opacity=".24"/><ellipse cx="218" cy="396" rx="16" ry="11" fill="#fff" opacity=".24"/><ellipse cx="315" cy="627" rx="8" ry="12" fill="#fff" opacity=".24"/><ellipse cx="412" cy="944" rx="9" ry="6" fill="#fff" opacity=".24"/><ellipse cx="509" cy="323" rx="10" ry="7" fill="#fff" opacity=".24"/><ellipse cx="606" cy="812" rx="11" ry="8" fill="#fff" opacity=".24"/><ellipse cx="703" cy="363" rx="12" ry="9" fill="#fff" opacity=".24"/><ellipse cx="32" cy="0" rx="13" ry="10" fill="#fff" opacity=".24"/><ellipse cx="129" cy="747" rx="14" ry="11" fill="#fff" opacity=".24"/><ellipse cx="226" cy="556" rx="15" ry="12" fill="#fff" opacity=".24"/><ellipse cx="323" cy="451" rx="16" ry="6" fill="#fff" opacity=".24"/><ellipse cx="420" cy="432" rx="8" ry="7" fill="#fff" opacity=".24"/><ellipse cx="517" cy="499" rx="9" ry="8" fill="#fff" opacity=".24"/><ellipse cx="614" cy="652" rx="10" ry="9" fill="#fff" opacity=".24"/><ellipse cx="711" cy="891" rx="11" ry="10" fill="#fff" opacity=".24"/><ellipse cx="40" cy="192" rx="12" ry="11" fill="#fff" opacity=".24"/><ellipse cx="137" cy="603" rx="13" ry="12" fill="#fff" opacity=".24"/><ellipse cx="234" cy="76" rx="14" ry="6" fill="#fff" opacity=".24"/><ellipse cx="331" cy="659" rx="15" ry="7" fill="#fff" opacity=".24"/><ellipse cx="428" cy="304" rx="16" ry="8" fill="#fff" opacity=".24"/><ellipse cx="525" cy="35" rx="8" ry="9" fill="#fff" opacity=".24"/><ellipse cx="622" cy="876" rx="9" ry="10" fill="#fff" opacity=".24"/><ellipse cx="719" cy="779" rx="10" ry="11" fill="#fff" opacity=".24"/><ellipse cx="48" cy="768" rx="11" ry="12" fill="#fff" opacity=".24"/><ellipse cx="145" cy="843" rx="12" ry="6" fill="#fff" opacity=".24"/><ellipse cx="242" cy="1004" rx="13" ry="7" fill="#fff" opacity=".24"/><ellipse cx="339" cy="227" rx="14" ry="8" fill="#fff" opacity=".24"/><ellipse cx="436" cy="560" rx="15" ry="9" fill="#fff" opacity=".24"/><ellipse cx="533" cy="979" rx="16" ry="10" fill="#fff" opacity=".24"/><ellipse cx="630" cy="460" rx="8" ry="11" fill="#fff" opacity=".24"/><ellipse cx="727" cy="27" rx="9" ry="12" fill="#fff" opacity=".24"/><ellipse cx="56" cy="704" rx="10" ry="6" fill="#fff" opacity=".24"/><ellipse cx="153" cy="443" rx="11" ry="7" fill="#fff" opacity=".24"/><ellipse cx="250" cy="268" rx="12" ry="8" fill="#fff" opacity=".24"/><ellipse cx="347" cy="179" rx="13" ry="9" fill="#fff" opacity=".24"/><ellipse cx="444" cy="176" rx="14" ry="10" fill="#fff" opacity=".24"/><ellipse cx="541" cy="259" rx="15" ry="11" fill="#fff" opacity=".24"/><ellipse cx="638" cy="428" rx="16" ry="12" fill="#fff" opacity=".24"/><ellipse cx="735" cy="683" rx="8" ry="6" fill="#fff" opacity=".24"/><ellipse cx="64" cy="0" rx="9" ry="7" fill="#fff" opacity=".24"/><ellipse cx="161" cy="427" rx="10" ry="8" fill="#fff" opacity=".24"/><ellipse cx="258" cy="940" rx="11" ry="9" fill="#fff" opacity=".24"/><ellipse cx="355" cy="515" rx="12" ry="10" fill="#fff" opacity=".24"/><ellipse cx="452" cy="176" rx="13" ry="11" fill="#fff" opacity=".24"/><ellipse cx="549" cy="947" rx="14" ry="12" fill="#fff" opacity=".24"/><ellipse cx="646" cy="780" rx="15" ry="6" fill="#fff" opacity=".24"/><ellipse cx="743" cy="699" rx="16" ry="7" fill="#fff" opacity=".24"/><ellipse cx="72" cy="704" rx="8" ry="8" fill="#fff" opacity=".24"/><ellipse cx="169" cy="795" rx="9" ry="9" fill="#fff" opacity=".24"/><ellipse cx="266" cy="972" rx="10" ry="10" fill="#fff" opacity=".24"/><ellipse cx="363" cy="211" rx="11" ry="11" fill="#fff" opacity=".24"/><ellipse cx="460" cy="560" rx="12" ry="12" fill="#fff" opacity=".24"/><ellipse cx="557" cy="995" rx="13" ry="6" fill="#fff" opacity=".24"/><ellipse cx="654" cy="492" rx="14" ry="7" fill="#fff" opacity=".24"/><ellipse cx="751" cy="75" rx="15" ry="8" fill="#fff" opacity=".24"/></svg>