<svg xmlns="http://www.w3.org/2000/svg" width="768" height="1024" viewBox="0 0 768 1024"><defs><linearGradient id="bg" x1="0" y1="0" x2="1" y2="1"><stop stop-color="#071015"/><stop offset=".56" stop-color="#18252d"/><stop offset="1" stop-color="#02040b"/></linearGradient></defs><rect width="768" height="1024" fill="url(#bg)"/><path d="M0 0 H768" stroke="#7ec9ff" stroke-opacity=".07"/><path d="M0 42 H768" stroke="#7ec9ff" stroke-opacity=".07"/><path d="M0 84 H768" stroke="#7ec9ff" stroke-opacity=".07"/><path d="M0 126 H768" stroke="#7ec9ff" stroke-opacity=".07"/><path d="M0 168 H768" stroke="#7ec9ff" stroke-opacity=".07"/><path d="M0 210 H768" stroke="#7ec9ff" stroke-opacity=".07"/><path d="M0 252 H768" stroke="#7ec9ff" stroke-opacity=".07"/><path d="M0 294 H768" stroke="#7ec9ff" stroke-opacity=".07"/><path d="M0 336 H768" stroke="#7ec9ff" stroke-opacity=".07"/><path d="M0 378 H768" stroke="#7ec9ff" stroke-opacity=".07"/><path d="M0 420 H768" stroke="#7ec9ff" stroke-opacity=".07"/><path d="M0 462 H768" stroke="#7ec9ff" stroke-opacity=".07"/><path d="M0 504 H768" stroke="#7ec9ff" stroke-opacity=".07"/><path d="M0 546 H768" stroke="#7ec9ff" stroke-opacity=".07"/><path d="M0 588 H768" stroke="#7ec9ff" stroke-opacity=".07"/><path d="M0 630 H768" stroke="#7ec9ff" stroke-opacity=".07"/><path d="M0 672 H768" stroke="#7ec9ff" stroke-opacity=".07"/><path d="M0 714 H768" stroke="#7ec9ff" stroke-opacity=".07"/><path d="M0 756 H768" stroke="#7ec9ff" stroke-opacity=".07"/><path d="M0 798 H768" stroke="#7ec9ff" stroke-opacity=".07"/><path d="M0 840 H768" stroke="#7ec9ff" stroke-opacity=".07"/><path d="M0 882 H768" stroke="#7ec9ff" stroke-opacity=".07"/><path d="M0 924 H768" stroke="#7ec9ff" stroke-opacity=".07"/><path d="M0 966 H768" stroke="#7ec9ff" stroke-opacity=".07"/><path d="M0 1008 H768" stroke="#7ec9ff" stroke-opacity=".07"/><path d="M0 0 V1024" stroke="#7ec9ff" stroke-opacity=".07"/><path d="M42 0 V1024" stroke="#7ec9ff" stroke-opacity=".07"/><path d="M84 0 V1024" stroke="#7ec9ff" stroke-opacity=".07"/><path d="M126 0 V1024" stroke="#7ec9ff" stroke-opacity=".07"/><path d="M168 0 V1024" stroke="#7ec9ff" stroke-opacity=".07"/><path d="M210 0 V1024" stroke="#7ec9ff" stroke-opacity=".07"/><path d="M252 0 V1024" stroke="#7ec9ff" stroke-opacity=".07"/><path d="M294 0 V1024" stroke="#7ec9ff" stroke-opacity=".07"/><path d="M336 0 V1024" stroke="#7ec9ff" stroke-opacity=".07"/><path d="M378 0 V1024" stroke="#7ec9ff" stroke-opacity=".07"/><path d="M420 0 V1024" stroke="#7ec9ff" stroke-opacity=".07"/><path d="M462 0 V1024" stroke="#7ec9ff" stroke-opacity=".07"/><path d="M504 0 V1024" stroke="#7ec9ff" stroke-opacity=".07"/><path d="M546 0 V1024" stroke="#7ec9ff" stroke-opacity=".07"/><path d="M588 0 V1024" stroke="#7ec9ff" stroke-opacity=".07"/><path d="M630 0 V1024" stroke="#7ec9ff" stroke-opacity=".07"/><path d="M672 0 V1024" stroke="#7ec9ff" stroke-opacity=".07"/><path d="M714 0 V1024" stroke="#7ec9ff" stroke-opacity=".07"/><path d="M756 0 V1024" stroke="#7ec9ff" stroke-opacity=".07"/></svg>