<svg xmlns="http://www.w3.org/2000/svg" width="768" height="1024" viewBox="0 0 768 1024"><defs><linearGradient id="bg" x1="0" y1="0" x2="1" y2="1"><stop stop-color="#020604"/><stop offset=".56" stop-color="#07140d"/><stop offset="1" stop-color="#02040b"/></linearGradient></defs><rect width="768" height="1024" fill="url(#bg)"/><line x1="0" y1="0" x2="351" y2="166" stroke="#9cff00" stroke-opacity=".16"/><circle cx="0" cy="0" r="3" fill="#9cff00" opacity=".55"/><line x1="97" y1="61" x2="468" y2="249" stroke="#9cff00" stroke-opacity=".16"/><circle cx="97" cy="61" r="3" fill="#9cff00" opacity=".55"/><line x1="194" y1="122" x2="585" y2="332" stroke="#9cff00" stroke-opacity=".16"/><circle cx="194" cy="122" r="3" fill="#9cff00" opacity=".55"/><line x1="291" y1="183" x2="702" y2="415" stroke="#9cff00" stroke-opacity=".16"/><circle cx="291" cy="183" r="3" fill="#9cff00" opacity=".55"/><line x1="388" y1="244" x2="51" y2="498" stroke="#9cff00" stroke-opacity=".16"/><circle cx="388" cy="244" r="3" fill="#9cff00" opacity=".55"/><line x1="485" y1="305" x2="168" y2="581" stroke="#9cff00" stroke-opacity=".16"/><circle cx="485" cy="305" r="3" fill="#9cff00" opacity=".55"/><line x1="582" y1="366" x2="285" y2="664" stroke="#9cff00" stroke-opacity=".16"/><circle cx="582" cy="366" r="3" fill="#9cff00" opacity=".55"/><line x1="679" y1="427" x2="402" y2="747" stroke="#9cff00" stroke-opacity=".16"/><circle cx="679" cy="427" r="3" fill="#9cff00" opacity=".55"/><line x1="8" y1="488" x2="519" y2="830" stroke="#9cff00" stroke-opacity=".16"/><circle cx="8" cy="488" r="3" fill="#9cff00" opacity=".55"/><line x1="105" y1="549" x2="636" y2="913" stroke="#9cff00" stroke-opacity=".16"/><circle cx="105" cy="549" r="3" fill="#9cff00" opacity=".55"/><line x1="202" y1="610" x2="753" y2="996" stroke="#9cff00" stroke-opacity=".16"/><circle cx="202" cy="610" r="3" fill="#9cff00" opacity=".55"/><line x1="299" y1="671" x2="102" y2="55" stroke="#9cff00" stroke-opacity=".16"/><circle cx="299" cy="671" r="3" fill="#9cff00" opacity=".55"/><line x1="396" y1="732" x2="219" y2="138" stroke="#9cff00" stroke-opacity=".16"/><circle cx="396" cy="732" r="3" fill="#9cff00" opacity=".55"/><line x1="493" y1="793" x2="336" y2="221" stroke="#9cff00" stroke-opacity=".16"/><circle cx="493" cy="793" r="3" fill="#9cff00" opacity=".55"/><line x1="590" y1="854" x2="453" y2="304" stroke="#9cff00" stroke-opacity=".16"/><circle cx="590" cy="854" r="3" fill="#9cff00" opacity=".55"/><line x1="687" y1="915" x2="570" y2="387" stroke="#9cff00" stroke-opacity=".16"/><circle cx="687" cy="915" r="3" fill="#9cff00" opacity=".55"/><line x1="16" y1="976" x2="687" y2="470" stroke="#9cff00" stroke-opacity=".16"/><circle cx="16" cy="976" r="3" fill="#9cff00" opacity=".55"/><line x1="113" y1="13" x2="36" y2="553" stroke="#9cff00" stroke-opacity=".16"/><circle cx="113" cy="13" r="3" fill="#9cff00" opacity=".55"/><line x1="210" y1="74" x2="153" y2="636" stroke="#9cff00" stroke-opacity=".16"/><circle cx="210" cy="74" r="3" fill="#9cff00" opacity=".55"/><line x1="307" y1="135" x2="270" y2="719" stroke="#9cff00" stroke-opacity=".16"/><circle cx="307" cy="135" r="3" fill="#9cff00" opacity=".55"/><line x1="404" y1="196" x2="387" y2="802" stroke="#9cff00" stroke-opacity=".16"/><circle cx="404" cy="196" r="3" fill="#9cff00" opacity=".55"/><line x1="501" y1="257" x2="504" y2="885" stroke="#9cff00" stroke-opacity=".16"/><circle cx="501" cy="257" r="3" fill="#9cff00" opacity=".55"/><line x1="598" y1="318" x2="621" y2="968" stroke="#9cff00" stroke-opacity=".16"/><circle cx="598" cy="318" r="3" fill="#9cff00" opacity=".55"/><line x1="695" y1="379" x2="738" y2="27" stroke="#9cff00" stroke-opacity=".16"/><circle cx="695" cy="379" r="3" fill="#9cff00" opacity=".55"/><line x1="24" y1="440" x2="87" y2="110" stroke="#9cff00" stroke-opacity=".16"/><circle cx="24" cy="440" r="3" fill="#9cff00" opacity=".55"/><line x1="121" y1="501" x2="204" y2="193" stroke="#9cff00" stroke-opacity=".16"/><circle cx="121" cy="501" r="3" fill="#9cff00" opacity=".55"/><line x1="218" y1="562" x2="321" y2="276" stroke="#9cff00" stroke-opacity=".16"/><circle cx="218" cy="562" r="3" fill="#9cff00" opacity=".55"/><line x1="315" y1="623" x2="438" y2="359" stroke="#9cff00" stroke-opacity=".16"/><circle cx="315" cy="623" r="3" fill="#9cff00" opacity=".55"/><line x1="412" y1="684" x2="555" y2="442" stroke="#9cff00" stroke-opacity=".16"/><circle cx="412" cy="684" r="3" fill="#9cff00" opacity=".55"/><line x1="509" y1="745" x2="672" y2="525" stroke="#9cff00" stroke-opacity=".16"/><circle cx="509" cy="745" r="3" fill="#9cff00" opacity=".55"/><line x1="606" y1="806" x2="21" y2="608" stroke="#9cff00" stroke-opacity=".16"/><circle cx="606" cy="806" r="3" fill="#9cff00" opacity=".55"/><line x1="703" y1="867" x2="138" y2="691" stroke="#9cff00" stroke-opacity=".16"/><circle cx="703" cy="867" r="3" fill="#9cff00" opacity=".55"/><line x1="32" y1="928" x2="255" y2="774" stroke="#9cff00" stroke-opacity=".16"/><circle cx="32" cy="928" r="3" fill="#9cff00" opacity=".55"/><line x1="129" y1="989" x2="372" y2="857" stroke="#9cff00" stroke-opacity=".16"/><circle cx="129" cy="989" r="3" fill="#9cff00" opacity=".55"/><line x1="226" y1="26" x2="489" y2="940" stroke="#9cff00" stroke-opacity=".16"/><circle cx="226" cy="26" r="3" fill="#9cff00" opacity=".55"/></svg>