<svg xmlns="http://www.w3.org/2000/svg" width="768" height="1024" viewBox="0 0 768 1024"><defs><linearGradient id="bg" x1="0" y1="0" x2="1" y2="1"><stop stop-color="#090106"/><stop offset=".56" stop-color="#1a0611"/><stop offset="1" stop-color="#02040b"/></linearGradient></defs><rect width="768" height="1024" fill="url(#bg)"/><circle cx="260" cy="300" r="220" fill="#ff3d55" opacity=".16"/><circle cx="560" cy="770" r="260" fill="#ff8a45" opacity=".1"/><circle cx="0" cy="0" r="0.4" fill="#ff3d55" opacity=".35"/><circle cx="91" cy="37" r="1.4" fill="#ff3d55" opacity=".35"/><circle cx="182" cy="148" r="2.4" fill="#ff3d55" opacity=".35"/><circle cx="273" cy="333" r="3.4" fill="#ff3d55" opacity=".35"/><circle cx="364" cy="592" r="0.4" fill="#ff3d55" opacity=".35"/><circle cx="455" cy="925" r="1.4" fill="#ff3d55" opacity=".35"/><circle cx="546" cy="308" r="2.4" fill="#ff3d55" opacity=".35"/><circle cx="637" cy="789" r="3.4" fill="#ff3d55" opacity=".35"/><circle cx="728" cy="320" r="0.4" fill="#ff3d55" opacity=".35"/><circle cx="51" cy="949" r="1.4" fill="#ff3d55" opacity=".35"/><circle cx="142" cy="628" r="2.4" fill="#ff3d55" opacity=".35"/><circle cx="233" cy="381" r="3.4" fill="#ff3d55" opacity=".35"/><circle cx="324" cy="208" r="0.4" fill="#ff3d55" opacity=".35"/><circle cx="415" cy="109" r="1.4" fill="#ff3d55" opacity=".35"/><circle cx="506" cy="84" r="2.4" fill="#ff3d55" opacity=".35"/><circle cx="597" cy="133" r="3.4" fill="#ff3d55" opacity=".35"/><circle cx="688" cy="256" r="0.4" fill="#ff3d55" opacity=".35"/><circle cx="11" cy="453" r="1.4" fill="#ff3d55" opacity=".35"/><circle cx="102" cy="724" r="2.4" fill="#ff3d55" opacity=".35"/><circle cx="193" cy="45" r="3.4" fill="#ff3d55" opacity=".35"/><circle cx="284" cy="464" r="0.4" fill="#ff3d55" opacity=".35"/><circle cx="375" cy="957" r="1.4" fill="#ff3d55" opacity=".35"/><circle cx="466" cy="500" r="2.4" fill="#ff3d55" opacity=".35"/><circle cx="557" cy="117" r="3.4" fill="#ff3d55" opacity=".35"/><circle cx="648" cy="832" r="0.4" fill="#ff3d55" opacity=".35"/><circle cx="739" cy="597" r="1.4" fill="#ff3d55" opacity=".35"/><circle cx="62" cy="436" r="2.4" fill="#ff3d55" opacity=".35"/><circle cx="153" cy="349" r="3.4" fill="#ff3d55" opacity=".35"/><circle cx="244" cy="336" r="0.4" fill="#ff3d55" opacity=".35"/><circle cx="335" cy="397" r="1.4" fill="#ff3d55" opacity=".35"/><circle cx="426" cy="532" r="2.4" fill="#ff3d55" opacity=".35"/><circle cx="517" cy="741" r="3.4" fill="#ff3d55" opacity=".35"/><circle cx="608" cy="0" r="0.4" fill="#ff3d55" opacity=".35"/><circle cx="699" cy="357" r="1.4" fill="#ff3d55" opacity=".35"/><circle cx="22" cy="788" r="2.4" fill="#ff3d55" opacity=".35"/><circle cx="113" cy="269" r="3.4" fill="#ff3d55" opacity=".35"/><circle cx="204" cy="848" r="0.4" fill="#ff3d55" opacity=".35"/><circle cx="295" cy="477" r="1.4" fill="#ff3d55" opacity=".35"/><circle cx="386" cy="180" r="2.4" fill="#ff3d55" opacity=".35"/><circle cx="477" cy="981" r="3.4" fill="#ff3d55" opacity=".35"/><circle cx="568" cy="832" r="0.4" fill="#ff3d55" opacity=".35"/><circle cx="659" cy="757" r="1.4" fill="#ff3d55" opacity=".35"/><circle cx="750" cy="756" r="2.4" fill="#ff3d55" opacity=".35"/><circle cx="73" cy="829" r="3.4" fill="#ff3d55" opacity=".35"/><circle cx="164" cy="976" r="0.4" fill="#ff3d55" opacity=".35"/><circle cx="255" cy="173" r="1.4" fill="#ff3d55" opacity=".35"/><circle cx="346" cy="468" r="2.4" fill="#ff3d55" opacity=".35"/><circle cx="437" cy="837" r="3.4" fill="#ff3d55" opacity=".35"/><circle cx="528" cy="256" r="0.4" fill="#ff3d55" opacity=".35"/><circle cx="619" cy="773" r="1.4" fill="#ff3d55" opacity=".35"/><circle cx="710" cy="340" r="2.4" fill="#ff3d55" opacity=".35"/><circle cx="33" cy="1005" r="3.4" fill="#ff3d55" opacity=".35"/><circle cx="124" cy="720" r="0.4" fill="#ff3d55" opacity=".35"/><circle cx="215" cy="509" r="1.4" fill="#ff3d55" opacity=".35"/><circle cx="306" cy="372" r="2.4" fill="#ff3d55" opacity=".35"/><circle cx="397" cy="309" r="3.4" fill="#ff3d55" opacity=".35"/><circle cx="488" cy="320" r="0.4" fill="#ff3d55" opacity=".35"/><circle cx="579" cy="405" r="1.4" fill="#ff3d55" opacity=".35"/><circle cx="670" cy="564" r="2.4" fill="#ff3d55" opacity=".35"/><circle cx="761" cy="797" r="3.4" fill="#ff3d55" opacity=".35"/></svg>